<svg xmlns="http://www.w3.org/2000/svg" width="24" height="24" viewBox="0 0 24 24"><defs><style>.a{fill:#1f2026;}</style></defs><path class="a" d="M12.171,3.856h-8a1.6,1.6,0,0,0-1.6,1.6v8a1.6,1.6,0,0,0,1.6,1.6h8a1.6,1.6,0,0,0,1.6-1.6v-8a1.6,1.6,0,0,0-1.6-1.6Zm0,6.4h-8v-1.6h8Zm12.8-6.4h-8a1.6,1.6,0,0,0-1.6,1.6v20.8a1.6,1.6,0,0,0,1.6,1.6h8a1.6,1.6,0,0,0,1.6-1.6V5.456A1.6,1.6,0,0,0,24.971,3.856Zm0,14.4h-8v-1.6h8Zm0-4.8h-8v-1.6h8Zm-12.8,3.2h-8a1.6,1.6,0,0,0-1.6,1.6v8a1.6,1.6,0,0,0,1.6,1.6h8a1.6,1.6,0,0,0,1.6-1.6v-8a1.6,1.6,0,0,0-1.6-1.6Zm0,6.4h-3.2v3.2h-1.6v-3.2h-3.2v-1.6h3.2v-3.2h1.6v3.2h3.2v1.6Z" transform="translate(-2.571 -3.856)"/></svg>