<svg xmlns="http://www.w3.org/2000/svg" width="32" height="32" viewBox="0 0 32 32"><defs><style>.a{fill:#1f2026;}</style></defs><path class="a" d="M31.631,20.568A12.135,12.135,0,0,0,31.746,19a12.135,12.135,0,0,0-.115-1.568l3.471-2.64a.792.792,0,0,0,.2-1.024l-3.29-5.536a.838.838,0,0,0-1-.352l-4.1,1.6a12.1,12.1,0,0,0-2.78-1.568l-.625-4.24A.8.8,0,0,0,22.7,3H16.12a.8.8,0,0,0-.806.672l-.625,4.24a12.727,12.727,0,0,0-2.78,1.568l-4.1-1.6a.813.813,0,0,0-1,.352L3.52,13.768a.775.775,0,0,0,.2,1.024l3.471,2.64A12.349,12.349,0,0,0,7.073,19a12.349,12.349,0,0,0,.115,1.568l-3.471,2.64a.792.792,0,0,0-.2,1.024l3.29,5.536a.838.838,0,0,0,1,.352l4.1-1.6a12.1,12.1,0,0,0,2.78,1.568l.625,4.24A.8.8,0,0,0,16.12,35H22.7a.8.8,0,0,0,.806-.672l.625-4.24a12.727,12.727,0,0,0,2.78-1.568l4.1,1.6a.813.813,0,0,0,1-.352l3.29-5.536a.792.792,0,0,0-.2-1.024l-3.471-2.64ZM19.41,24.6A5.6,5.6,0,1,1,25.167,19,5.686,5.686,0,0,1,19.41,24.6Z" transform="translate(-3.406 -3)"/></svg>