<svg xmlns="http://www.w3.org/2000/svg" xmlns:xlink="http://www.w3.org/1999/xlink" width="210" height="70" viewBox="0 0 210 70"><defs><style>.a{fill:#f6f6f6;}.b,.c{stroke:none;}.c{fill:#fff;}.d{filter:url(#a);}</style><filter id="a" x="0" y="0" width="210" height="70" filterUnits="userSpaceOnUse"><feOffset dy="1" input="SourceAlpha"/><feGaussianBlur stdDeviation="1" result="b"/><feFlood flood-opacity="0.161"/><feComposite operator="in" in2="b"/><feComposite in="SourceGraphic"/></filter></defs><g class="d" transform="matrix(1, 0, 0, 1, 0, 0)"><g class="a" transform="translate(3 2)"><path class="b" d="M 202.5 59.9398078918457 C 202.1350860595703 59.58840942382813 201.7351531982422 59.22711563110352 201.3005065917969 58.86572265625 C 197.8930053710938 56.03253936767578 193.9403533935547 54.52288055419922 189.8698425292969 54.49993515014648 C 187.1878967285156 54.48482894897461 170.3572692871094 54.47714614868164 139.8455047607422 54.47714614868164 C 87.77703094482422 54.47714614868164 12.86892890930176 54.49977874755859 12.11837577819824 54.50001525878906 C 6.263586521148682 54.50001525878906 1.500007629394531 49.78972244262695 1.500007629394531 43.9999885559082 L 1.500007629394531 1.500012874603271 L 188 1.499908447265625 C 190.3051452636719 1.499908447265625 193.9593811035156 2.465776920318604 196.9268493652344 4.623619079589844 C 198.6067199707031 5.845171451568604 199.9298553466797 7.334829330444336 200.8594360351563 9.051145553588867 C 201.9480285644531 11.06111907958984 202.5 13.39901351928711 202.5 15.99990844726563 L 202.5 59.9398078918457 Z"/><path class="c" d="M 188 -9.1552734375e-05 L 188 2.999908447265625 L 3.000015258789063 2.999988555908203 L 3.000015258789063 43.99999237060547 C 3.000015258789063 48.96260070800781 7.090667724609375 52.99999237060547 12.11788940429688 52.99999237060547 C 12.86825561523438 52.99977111816406 87.75572967529297 52.97713088989258 139.822998046875 52.97713088989258 C 170.3524017333984 52.97713088989258 187.1934204101563 52.98479843139648 189.8783111572266 52.99996185302734 C 194.5314025878906 53.02618789672852 198.2598876953125 54.76225662231445 201 56.73553466796875 L 201 15.99990844726563 C 201 11.64715957641602 199.3327789306641 8.227798461914063 196.044677734375 5.836795806884766 C 192.9650573730469 3.597408294677734 189.5389251708984 2.999908447265625 188 2.999908447265625 L 188 -9.1552734375e-05 M 188 -9.1552734375e-05 C 192.8240356445313 -9.1552734375e-05 204 3.761379241943359 204 15.99990844726563 L 204 63.99990844726563 C 204 63.99990844726563 198.9568939208984 56.05118560791016 189.8613891601563 55.99990844726563 C 186.8330688476563 55.98283386230469 166.1117706298828 55.97714233398438 139.822998046875 55.97714233398438 C 87.15389251708984 55.97714233398438 12.11882019042969 55.99999237060547 12.11882019042969 55.99999237060547 C 5.42578125 55.99999237060547 1.52587890625e-05 50.62740707397461 1.52587890625e-05 43.99999237060547 L 1.52587890625e-05 -7.62939453125e-06 L 188 -9.1552734375e-05 Z"/></g></g></svg>